<svg xmlns="http://www.w3.org/2000/svg" width="3576" height="1330" viewBox="0 0 3576 1330">
  <defs>
    <style>
      .cls-1 {
        fill: #00c0ff;
        fill-rule: evenodd;
      }
    </style>
  </defs>
  <path id="Forma_1" data-name="Forma 1" class="cls-1" d="M4911-168h9V1546h-9V-168ZM565,40c58.714-.729,128.147-9.4,137,40q1,42,2,84c18.755,11.007,51.6,14.033,73,22,16.708,6.222,38.154,31.349,57,30,17.089-21.6,49.2-60.185,80-66,40.542-7.654,117.37,77.656,120,111,4.08,51.694-60,58.418-64,99,7.822,17.6,23.938,37.916,32,56,11.63,26.085,9.59,49.15,28,67,86.06-3.809,119.01-.969,119,90,0,20.269,3.32,49.768-5,63-15.94,25.341-36.82,39.006-79,39l-36-1c-6.59,2-59.251,122.314-58,131,22.3,19.754,57.82,46.836,64,81,6.96,38.448-39.852,83.959-65,30,1.654-11.306,12.635-18.261,9-32l-71-74,3-20c16.759-23.132,38.076-55.745,48-84,7.978-22.716,11.839-76.657,28-87,21.82-13.962,85.18,9.178,110-9,4.02-16.671,4.58-61.209-3-73-24.35-10.7-84.91,5.419-107-6l-2-2-3-3c-17.013-23.42-12.006-57.272-26-85-13.161-26.077-35.346-55.083-46-81q-0.5-9.5-1-19c11.18-32.471,76.224-42.814,69-89l-49-45c-32.3-7.709-65.516,67.381-94,73-7.631,1.5-9.764-3.107-13-6-31.961-28.57-80.231-37.987-121-58l-36-7c-25.679-16.466,8.767-100.19-15-119-16.14-10.628-68.511-5.162-82,1-13.484,25.317,10.416,85.012-7,112l-3,3-93,27c-25.765,11.946-51.065,32.671-75,45l-5,2h-3c-71.87-44.768-62.268-115.387-145-26,0.866,48.339,60.03,49.269,71,85v3q0.5,3,1,6-0.5,3-1,6v3c-4.192,17.586-38.129,63.915-48,85-13.131,28.046-9.869,58.284-26,83q-1,2-2,4l-2,1-1,1c-25.4,13.42-83.194-8.05-109,8-5.6,16.9-4.351,57.572,0,72,26.744,13.327,78.512-5.857,107,7l2,1,3,3c20.151,20.8,13.935,59.264,28,87,11.086,21.861,21.323,48.069,35,70l12,12q1,5,2,10v3c-2.087,27.5-60.478,54.318-71,78-7.724,17.383,15.76,26.535,4,43-6.915,9.681-25.647,22.051-41,11l-13-26c-23.97-55.307,47.005-73.466,59-113-6.1-22.157-25.552-42.288-34-62-9.26-21.607-4.993-43.268-21-57q-0.5-1-1-2l-30-1c-48.469.1-74.655-10.293-90-42-7.467-15.43-4.012-44.8-4-66,0.054-96.018,41.568-77.827,121-85,6.563-8.544,59.108-124.269,58-129-4.448-18.984-49.69-42.685-61-83-10.834-38.616,79.426-127.679,118-120,40.076,7.978,50.481,60.42,87,67,36.09-25.706,71.87-34.3,120-51,4.767-8.4,4-23.07,4-37C514,70.6,518.922,52.631,565,40ZM543,328l134,1c37.08,10.519,43.938,37.838,65,64l42,33c23.334,26.68,44.078,61.553,57,98q1.5,19,3,38c2.977,11.668,15.416,11.7,21,20,4.477,6.651,13.288,69.607,11,82-8.424,45.622-37.976,16.241-52,36-17.749,25.006-21.79,58.973-35,88-21.567,47.387-86.915,115.842-137,135-16.9,6.464-46.57,4.532-65,2-96.143-13.208-144.322-86.444-177-162-10.168-23.508-9.152-52.711-26-69-51.41,1.563-42.668-31.516-36-68,3.053-16.7-2.7-33.875,5-45l18-16q1-16.5,2-33c2.65-14.613,11.3-33.3,18-49,16.007-37.52,49.91-61.736,80-86,6.971-5.621,6.007-14.132,11-22C496.271,352.51,517.473,339.522,543,328Zm1137,3c17.71,0.212,32.95,27.7,16,39-25.39,18.239-113.09-7.483-141,8q-0.495,174.483-1,349c0,37.609,9.99,112.754-33,105-30.33-5.471-20-74.6-20-110V378c-26.15-10.346-126.94,7.048-144-10-27.19-39.385,38.29-36,66-36Zm412,1c42.87,1.98,8.11,133.283,25,167,24.3,1.7,105.12-27.965,87,29-20.39,10.988-69.26-3.105-90,9V753c2.73,10.556,14.89,22.671,23,28,15.72,10.332,79.6,1.4,87,19,22.59,53.71-93.17,25.148-108,17-66.52-36.548-43-248.37-43-356C2073,413.871,2062.11,350.005,2092,332ZM605,383l-12,10c-0.767,19.377,5.118,31.371,24,25l6-6q-0.5-11.5-1-23Zm77,15c-10.074,14.641-8.019,42.017-19,57-6.608,9.016-24.4,9.115-32,18,1.1,26.272,21.483,25.271,32,41,29.682,44.394-13.213,89.959-46,98-51.474,12.623-84.635-48.964-66-94l34-33q-0.5-7.5-1-15l-30-14c-11.062-13.263-9.339-41.286-19-55h-6c-26.992,37.55-74.836,63.383-93,107-6.19,14.862-16.307,44.085-13,62,1.88,10.187,10.136,20.175,7,35-2.57,12.145-52.446,20.69-29,41,8.088,5.138,23.249.437,34,4,15.253,5.055,26.714,17.707,46,21H736c19.866-3.782,33.916-17.4,51-22,11.743-3.164,22.138.684,31-4q0.5-9.5,1-19c-5.894-4.156-24.545-6.134-29-12-13.09-17.235,6.552-34.526,6-51q-9-30-18-60c-23.3-41.967-65.249-62.29-89-104Zm1687,90c90.01,1.052,142.7,3.06,168,68,8.22,21.1,3,59.6,3,86,0,98.037,6.44,166.061-69,190-22.02,6.988-53.62,4-81,4-114.84,0-121-67.584-121-183,0-48.37-1.81-93.7,17-123C2304.95,500.47,2329.52,498.78,2369,488Zm-381,4q5.505,2,11,4c17.49,23.4,7,98.123,7,135q-1.005,69.493-2,139c-16.82,51.126-94.41,75.276-172,61-104.07-19.148-90.99-96-91-215,0-33.684-10.62-113.395,15-122,44.16-10.369,30.01,104.012,30,146-0.01,89.926-22.91,149.982,74,150h57C2025.55,772.755,1916.58,526.765,1988,492Zm648,0c195.32,0.311,213.99-2.42,214,194,0,38.112,11.37,122.678-10,140-16.64,13.482-71.42,6-99,6-80.66,0-159.96-17.089-150-100q0.495-21.5,1-43c12.17-39.912,43.9-63.8,89-71,39.81-6.352,101.44,12.1,124-9,2.23-93.134-44.58-75.015-135-75-19.26,0-34.09,1.955-46-5-3.85-13.537-.91-25.278,5-34C2631.33,494,2633.67,493,2636,492Zm305,0c206.58,4.856,238-22.5,238,197,0,43.278,1.8,77.233-16,103-28.35,41.048-91.78,40.1-162,40l-43-1c-3.7,43.357,10.49,115.846-8,146-53.87,16.967-38-53.539-38-100q0.495-180.982,1-362C2917.66,501.057,2927.62,497.628,2941,492Zm322,0c65.63,3.117,161.88-10.953,205,17,12.23,7.926,32.16,31.9,36,47V769q-9,14-18,28c-28.74,35.849-89.05,35.039-154,35-18.68-.011-30.75-5.136-43,0-13.22,36.007,22.14,170.73-38,145-12.53-22.406-5-77.31-5-109V604C3246,565.208,3236.82,505.916,3263,492Zm-909,40c-19.33,7.013-32.61,12.259-40,30q0.495,98.49,1,197,10.995,14.5,22,29c15.71,7.325,116.7,8.341,134,1,8.44-3.581,22.39-18.386,25-28,5.93-21.825,6.11-185.334-1-203C2480.36,521.62,2404.83,531.172,2354,532Zm945,1c-5.4,2.572-12.09,2.91-14,9-5.61,17.866-.2,230.092,5,243,13.37,8.769,45.62,5,67,5,40.75,0,81.94,3.394,100-19,6.25-7.748,10.3-199.1,3-215C3443.75,520.592,3347.61,535.091,3299,533ZM607,534l-8,3c-3.732,5.994-4.444,11.217-2,19l3,3,14,1,7-7c0.168-9.32-1.525-12.023-5-17Zm2366,0-14,3-3,4c0.08,40.688-6.71,224.31,6,245,18.59,8.186,52.91,4,80,4,106.06,0,97-31.3,97-136,0-27.648,5.22-68.025-4-89C3116.12,522.056,3034.31,533.118,2973,534ZM2786,658c-59.15,15.379-129.39-18.588-152,32q-1.5,20.5-3,41c0.1,60.6,47.05,54,106,54l61-1c13.96-17.558,10.6-92.787,7-120Q2795.505,661,2786,658ZM455,718l-3,6c1.777,24.961,23.084,47.027,33,65,75.844,137.478,180.034,94.928,247-15,8.775-14.4,25.142-33.331,27-54-50.985,15.255-134.7,9-200,9H478ZM770,869l13,1c19.479,25.767,44.3,38.393,82,46l38,7c100.39,49.6,168.87,87.48,188,220,4.2,29.08,10.25,91.97-2,117-9.52,6.04-25.83,8.11-37,2-22.24-28.51-8.83-73.21-15-117-5.21-36.99-9.94-64.49-26-89-29.531-45.06-95.872-74.288-152-92-32.33-10.2-55-9.053-80-23C746.082,922.636,728.165,891.871,770,869Zm-334,1c49.071,7.225,23.7,52.908,0,69-23.521,15.968-45.83,15.344-78,25-55.388,16.625-120.9,44.16-152,86q-11,19.5-22,39c-6.515,35.49,14.319,218.97-53,173-16.346-11.16-9.727-143.53-3-165,30.52-97.442,99.1-139.485,190-176,28.707-11.532,60.044-8.448,85-22Zm206,80,14,1c17.783,23.438,21.833,85.67,28,122,5.354,31.54,29.781,71.25,24,113-6.072,43.85-63.706,94.31-130,80-14.2-3.07-23.358-16.88-32-26-10.613-11.2-26.774-20.82-33-36-15.258-37.19,21.587-159.39,33-191q4-26,8-52C566.743,941.994,618.142,957.067,642,950Zm-37,34c-8.22,10.079-15.526,40.6-10,54h7c14.808-13.54,26.964-30.08,11-53Zm25,94c-21.394,15.57-73.385,37.45-65,77,19.594-7.65,82.95-48.43,71-76C634,1078.67,632,1078.33,630,1078Zm18,80q-28,21-56,42c-2.861,51.3,81.295-10.58,62-41C652,1158.67,650,1158.33,648,1158Z"/>
</svg>
